<svg width="36" height="36" viewBox="0 0 36 36" fill="none" xmlns="http://www.w3.org/2000/svg">
<path d="M36 18.0004C36 22.8083 34.1277 27.328 30.7279 30.7283C27.329 34.1272 22.8093 35.9995 18.0022 36.0004H18C13.1921 36.0004 8.67151 34.128 5.27206 30.7283C1.87234 27.328 0 22.8083 0 18.0004C0 13.1925 1.87234 8.67188 5.27206 5.27243C8.67151 1.87271 13.1921 0.000366211 18 0.000366211H18.0022C22.8093 0.00119019 27.329 1.87354 30.7279 5.27243C34.1277 8.67188 36 13.1925 36 18.0004Z" fill="#FF7236"/>
<path d="M24.8034 15.525C21.8389 17.2251 22.3438 22.1878 25.5593 22.1878C26.9462 22.1878 28.1464 21.1452 28.6808 19.8124C29.915 16.734 27.3485 14.0648 24.8034 15.525Z" fill="#FFFEFD"/>
<path d="M21.7585 16.1394C25.3153 16.1394 26.3803 10.0995 23.0011 9.10655C21.4616 8.65429 19.7109 9.73947 19.1486 11.7232C18.5177 13.9466 19.7589 16.1394 21.7585 16.1394Z" fill="#FFFEFD"/>
<path d="M20.8435 26.8907C20.3495 26.7541 19.4729 26.6661 18.5552 26.6534C17.5853 26.6392 16.5697 26.7088 15.9127 26.8907C14.138 27.385 11.7232 26.189 12.2531 23.7049C12.7431 21.4084 14.504 21.5392 14.9204 19.3629C15.3399 17.1633 16.9704 16.1018 18.5552 16.1848C20.0221 16.2618 21.4497 17.3196 21.8387 19.3634C22.2526 21.5412 24.0098 21.4092 24.4992 23.7049C25.031 26.191 22.6111 27.3805 20.8435 26.8907Z" fill="#FFFEFD"/>
<path d="M15.4988 16.1397C16.5049 16.1397 17.369 15.5554 17.8491 14.661C19.2764 12.0018 16.9322 8.32037 14.256 9.10878C10.871 10.1045 11.944 16.1397 15.4988 16.1397Z" fill="#FFFEFD"/>
<path d="M13.8909 20.2104C15.033 17.416 12.3259 14.0027 9.74052 15.0767C6.62626 16.3702 7.99979 21.9492 11.424 21.9492C12.523 21.9492 13.4568 21.2726 13.8909 20.2104Z" fill="#FFFEFD"/>
<path d="M20.8439 26.8906C20.3499 26.754 19.4733 26.6661 18.5557 26.6534V16.1848C20.0225 16.2618 21.4501 17.3195 21.8391 19.3633C22.2531 21.5412 24.0103 21.4091 24.4996 23.7048C25.0314 26.1909 22.6115 27.3805 20.8439 26.8906Z" fill="#FFFEFD"/>
</svg>
