<svg width="221" height="200" viewBox="0 0 221 200" fill="none" xmlns="http://www.w3.org/2000/svg">
<path d="M179.556 57.8442C141.742 68.142 105.678 23.8848 131.772 -2.2091C143.026 -13.4633 161.203 -14.766 176.326 -8.31673C211.253 6.5798 212.026 49.0071 179.556 57.8442Z" fill="#FFFEFD" fill-opacity="0.2"/>
<path d="M149.876 77.5782C178.74 48.7149 236.259 88.9502 216.873 124.407C208.04 140.561 185.052 145.985 164.436 134.495C141.323 121.622 133.65 93.8045 149.876 77.5782Z" fill="#FFFEFD" fill-opacity="0.2"/>
<path d="M55.4497 -2.0018C52.5464 3.11165 46.1441 10.9375 38.8005 18.4868C31.0442 26.473 22.2406 34.1515 15.4364 38.0115C-2.96546 48.412 -12.8819 77.6867 11.5199 93.4896C34.0808 108.097 47.3112 92.7489 68.3023 106.982C89.5064 121.377 111.328 116.736 123.517 103.203C134.797 90.6771 137.822 70.5324 124.44 50.8364C110.175 29.853 125.503 16.6621 110.896 -5.8868C95.0931 -30.3205 65.8295 -20.3103 55.4497 -2.0018Z" fill="#FFFEFD" fill-opacity="0.2"/>
<path d="M99.0759 128.375C107.24 120.211 118.981 117.928 130.114 121.269C163.217 131.206 173.985 180.021 145.887 195.358C110.361 214.769 70.2285 157.223 99.0759 128.375Z" fill="#FFFEFD" fill-opacity="0.2"/>
<path d="M53.0886 108.48C84.9692 121.825 90.6235 171.415 60.9521 183.704C25.2127 198.508 -8.78843 142.215 18.999 114.427C27.9167 105.51 40.9697 103.406 53.0886 108.48Z" fill="#FFFEFD" fill-opacity="0.2"/>
</svg>
